<svg id="Component_1_1" data-name="Component 1 – 1" xmlns="http://www.w3.org/2000/svg" width="161.734" height="140.602" viewBox="0 0 161.734 140.602">
  <path id="Path_1" data-name="Path 1" d="M897.685,497.2l-8.2-14.233c7.979-14.017,16.174-28.034,24.153-42.051L905.663,426.9c-8.194,14.017-16.174,28.034-24.368,42.051l-7.979-14.017C881.3,440.7,889.49,426.9,897.469,412.67l-7.979-13.8c-8.194,14.017-16.173,28.034-24.152,42.051L857.143,426.9l32.346-56.284,40.327,70.3Z" transform="translate(-857.143 -370.619)" fill="#fff" fill-rule="evenodd"/>
  <path id="Path_2" data-name="Path 2" d="M1048.092,495.19h-64.91l-24.152,42.051h48.52l-7.979,14.017H950.836l-7.979,14.017h64.694l24.368-42.052H983.182l8.2-14.016h48.52Z" transform="translate(-894.336 -424.674)" fill="#fff" fill-rule="evenodd"/>
  <path id="Path_3" data-name="Path 3" d="M975.2,427.284,942.856,371H959.03c7.979,14.017,16.174,28.25,24.152,42.267h16.174C991.377,399.25,983.4,385.017,975.2,371h48.52l32.347,56.284Zm56.715-14.017-16.173-28.25H999.571l16.174,28.25Z" transform="translate(-894.336 -370.784)" fill="#fff" fill-rule="evenodd"/>
</svg>
